<svg width="85" height="73" viewBox="0 0 85 73" fill="none" xmlns="http://www.w3.org/2000/svg">
<path d="M7.41028 31.1059C6.17204 30.7682 5.44035 29.5019 5.76867 28.2636C6.09699 27.0254 7.37276 26.2937 8.611 26.622C9.84924 26.9503 10.5809 28.2261 10.2526 29.4549V29.4643C9.97119 30.4962 9.03313 31.181 8.01064 31.181C7.81364 31.181 7.60727 31.1528 7.41028 31.1059ZM9.79296 23.7609C8.68604 23.1136 8.31082 21.6972 8.9487 20.5903C9.59596 19.4833 11.0124 19.0987 12.1194 19.746C13.2263 20.3839 13.6109 21.8004 12.9636 22.9073C12.5321 23.6577 11.7535 24.0705 10.9562 24.0705C10.5622 24.0705 10.1588 23.9673 9.79296 23.7609ZM14.0049 17.2883C13.1043 16.3784 13.1043 14.915 14.0049 14.0051C14.9148 13.1045 16.3782 13.1045 17.2881 14.0051C18.1886 14.915 18.1886 16.3784 17.2881 17.2883C16.8378 17.7386 16.2374 17.9637 15.6465 17.9637C15.0555 17.9637 14.4645 17.7386 14.0049 17.2883ZM19.7458 12.1196C19.0985 11.0126 19.4738 9.58679 20.5901 8.94891C21.697 8.31102 23.1134 8.68625 23.7513 9.79316C24.3986 10.9001 24.0234 12.3259 22.9071 12.9638C22.5412 13.1796 22.1472 13.2734 21.7533 13.2734C20.9465 13.2734 20.1679 12.8606 19.7458 12.1196ZM26.6124 8.6112C26.2841 7.37296 27.0158 6.0972 28.254 5.76888C29.4923 5.44055 30.7586 6.17224 31.0964 7.41048C31.4247 8.64873 30.693 9.91511 29.4547 10.2434C29.2484 10.2997 29.0514 10.3279 28.8544 10.3279C27.8319 10.3279 26.8938 9.64307 26.6124 8.6112Z" fill="#C0C0C0"/>
<path d="M41.8478 51.3776C35.9849 51.3776 34.3715 49.9142 34.3715 47.8223C34.3715 46.0869 35.4784 45.2801 37.3357 44.8017V44.6235C36.0224 44.2295 35.1876 43.5447 35.1876 42.2033C35.1876 40.7118 36.2945 40.0833 37.9642 39.6893V39.5111C36.1444 38.6387 35.0656 37.0252 35.0656 34.7551C35.0656 31.1717 37.7297 29.258 41.7634 29.258C42.7483 29.258 43.677 29.38 44.4838 29.5864V28.7515C44.4838 27.5508 45.3843 26.6596 46.8477 26.6596H49.5681V29.8865H45.8627V30.1586C47.5325 31.031 48.5268 32.5788 48.5268 34.7645C48.5268 38.3197 45.8346 40.2615 41.7728 40.2615C40.8722 40.2615 40.0092 40.1677 39.2588 39.9613C38.8085 40.1959 38.4802 40.5617 38.4802 41.0964C38.4802 42.0814 39.5308 42.147 40.7503 42.147H44.2774C48.705 42.147 50.4029 44.0044 50.4029 46.6028C50.3936 49.8485 47.7013 51.3776 41.8478 51.3776ZM43.9115 45.6366H38.6209C38.2269 45.9649 38.0205 46.3871 38.0205 46.8936C38.0205 47.8504 38.771 48.5352 40.7128 48.5352H43.3112C45.3186 48.5352 46.2098 47.963 46.2098 46.9218C46.2098 46.115 45.7032 45.6366 43.9115 45.6366ZM44.3243 35.1116V34.3986C44.3243 33.0478 43.5176 32.0629 41.754 32.0629C40.0186 32.0629 39.24 33.0478 39.24 34.3986V35.1116C39.24 36.4624 40.0186 37.4473 41.754 37.4473C43.5176 37.4473 44.3243 36.453 44.3243 35.1116Z" fill="#C0C0C0"/>
<path d="M53.1993 41.5936H58.1054V33.0385H53.1993V29.5958H62.5237V41.5843H67.0639V45.0269H53.1993V41.5936ZM63.1428 24.6335C63.1428 26.2938 61.8013 27.6353 60.141 27.6353C58.4806 27.6353 57.1392 26.2938 57.1392 24.6335C57.1392 22.9731 58.4806 21.6317 60.141 21.6317C61.8013 21.6223 63.1428 22.9731 63.1428 24.6335Z" fill="#C0C0C0"/>
<path d="M69.9425 41.5937H74.4827V33.0385H69.6423V29.5959H74.4827V27.3539C74.4827 24.7555 75.9742 22.8981 79.2105 22.8981H84.4449V26.3408H78.9104V29.5959H84.4449V33.0385H78.9104V41.5937H83.7508V45.0364H69.9425V41.5937Z" fill="#C0C0C0"/>
<path d="M26.7448 45.3929C28.4026 45.3929 29.7466 44.049 29.7466 42.3911C29.7466 40.7333 28.4026 39.3893 26.7448 39.3893C25.0869 39.3893 23.743 40.7333 23.743 42.3911C23.743 44.049 25.0869 45.3929 26.7448 45.3929Z" fill="#C0C0C0"/>
<path d="M57.0529 57.7848C56.2368 56.7998 54.7735 56.6591 53.7885 57.4752C49.5391 60.9836 44.2953 63.1036 38.8264 63.582V61.3119C38.8264 60.0268 37.7851 58.9949 36.5094 58.9949C35.2336 58.9949 34.1924 60.0361 34.1924 61.3119V63.582C21.0595 62.4657 10.5626 51.9688 9.44629 38.8359H11.707C12.9922 38.8359 14.024 37.7947 14.024 36.5189C14.024 35.2431 12.9828 34.2019 11.707 34.2019H2.32639C1.04125 34.1831 0 35.215 0 36.5002C0 37.7853 1.04125 38.8172 2.31701 38.8172H4.78412C5.91917 54.5109 18.4892 67.081 34.183 68.216V70.6831C34.183 71.9683 35.2242 73.0002 36.5 73.0002C37.7758 73.0002 38.817 71.9589 38.817 70.6831V68.2254C45.3647 67.747 51.6497 65.2424 56.734 61.0492C57.7284 60.2331 57.8691 58.7698 57.0529 57.7848Z" fill="#C0C0C0"/>
<path d="M36.5003 14.0146C37.7854 14.0146 38.8173 12.9734 38.8173 11.6976V9.42753C44.2862 9.89656 49.5206 12.0166 53.77 15.5249C54.2015 15.8814 54.7269 16.0596 55.2428 16.0596C55.9088 16.0596 56.5748 15.7688 57.0345 15.2154C57.8506 14.2304 57.7099 12.767 56.7249 11.9509C51.65 7.75777 45.365 5.26253 38.8173 4.78412V2.31701C38.8173 1.03187 37.7761 0 36.5003 0C35.2245 0 34.1833 1.04125 34.1833 2.31701V11.6976C34.1833 12.9734 35.2245 14.0146 36.5003 14.0146Z" fill="#C0C0C0"/>
</svg>
